<?xml version="1.0"?>
<svg xmlns="http://www.w3.org/2000/svg" height="512px" viewBox="-5 0 446 446.00213" width="512px" class=""><g><path d="m392 140.101562v-90.5c-.097656-27.5-22.398438-49.703124-49.898438-49.601562h-.101562-248c-27.5-.101562-49.898438 22-50 49.5v.101562 90.398438c-25.097656 3.101562-44 24.300781-44 49.601562v204c0 5.597657 4.402344 10.199219 10 10.296876h18v32.402343c-.097656 5.199219 4 9.5 9.199219 9.597657h.5 80.703125c5.199218.101562 9.5-4 9.699218-9.199219 0-.199219 0-.300781 0-.5v-32.199219h180v32.398438c-.101562 5.203124 4 9.5 9.199219 9.601562h.5 80.699219c5.199219.101562 9.5-4 9.699219-9.199219 0-.199219 0-.300781 0-.5v-32.300781h18c5.601562-.101562 10-4.699219 10-10.300781v-204c-.199219-25.300781-19.097657-46.597657-44.199219-49.597657zm-328-90.5c0-16.402343 13.402344-29.703124 29.800781-29.601562h.199219 248c16.402344-.101562 29.902344 13 30 29.5v.199219 92.101562c-21.300781 6.199219-36 25.800781-36 48v34.199219h-236v-34.300781c0-22.199219-14.699219-41.699219-36-48zm272 194.398438v60h-236v-60zm-228 182h-60v-22h60zm280 0h-60v-22h60zm28-42h-396v-194.300781c0-16.597657 13.402344-30 30-30 16.601562 0 30 13.402343 30 30v124c0 5.601562 4.402344 10.199219 10 10.300781h256c5.601562-.101562 10-4.699219 10-10.300781v-124c0-16.597657 13.402344-30 30-30 16.601562 0 30 13.402343 30 30zm0 0" data-original="#000000" class="active-path" data-old_color="#00ffff" fill="#00ffff"/></g> </svg>
