<?xml version="1.0"?>
<svg xmlns="http://www.w3.org/2000/svg" xmlns:xlink="http://www.w3.org/1999/xlink" version="1.1" id="Capa_1" x="0px" y="0px" viewBox="0 0 479.264 479.264" style="enable-background:new 0 0 479.264 479.264;" xml:space="preserve" width="512px" height="512px" class=""><g><path d="M479.264,194.077l-237.589-67.274l-2.043-0.579L0,194.077l88.354,34.071v32.653c-7.648,3.007-13.084,10.447-13.084,19.149  s5.436,16.142,13.084,19.149v53.942h15v-53.942c7.648-3.007,13.084-10.447,13.084-19.149s-5.436-16.142-13.084-19.149v-26.869  l18.142,6.996v56.496l2.764,2.251c34.124,27.794,74.113,41.69,114.102,41.69c39.989,0,79.979-13.896,114.103-41.69l2.764-2.251  v-55.516L479.264,194.077z M95.854,285.534c-3.079,0-5.584-2.505-5.584-5.584s2.505-5.584,5.584-5.584s5.584,2.505,5.584,5.584  S98.933,285.534,95.854,285.534z M239.632,141.813l192.282,54.445l-192.282,74.15l-114.067-43.988l115.584-23.905l-3.037-14.689  L99.711,216.45L47.35,196.258L239.632,141.813z M340.227,290.251c-61.351,48.03-142.379,48.032-203.731,0v-43.539l103.137,39.772  l100.595-38.792V290.251z" data-original="#000000" class="active-path" data-old_color="#00ffff" fill="#00ffff"/></g> </svg>
