<?xml version="1.0"?>
<svg xmlns="http://www.w3.org/2000/svg" xmlns:xlink="http://www.w3.org/1999/xlink" version="1.1" id="Capa_1" x="0px" y="0px" viewBox="0 0 512.045 512.045" style="enable-background:new 0 0 512.045 512.045;" xml:space="preserve" width="512px" height="512px" class=""><g><g>
	<g>
		<g>
			<path d="M256.043,192.023v-10.667c0-17.673-14.327-32-32-32H111.616c23.618-26.297,21.445-66.762-4.852-90.38     s-66.762-21.445-90.38,4.852c-22.83,25.421-21.666,64.292,2.645,88.301c-11.544,5.139-18.984,16.59-18.987,29.227v298.667     c0,17.673,14.327,32,32,32h10.667c7.88-0.018,15.476-2.942,21.333-8.213c5.857,5.271,13.454,8.196,21.333,8.213h10.667     c17.673,0,32-14.327,32-32v-256h96C241.716,224.023,256.043,209.696,256.043,192.023z M64.043,64.023     c23.564,0,42.667,19.103,42.667,42.667s-19.103,42.667-42.667,42.667s-42.667-19.102-42.667-42.667S40.478,64.023,64.043,64.023z      M117.376,202.69c-5.891,0-10.667,4.776-10.667,10.667v266.667c0,5.891-4.776,10.667-10.667,10.667H85.376     c-5.891,0-10.667-4.776-10.667-10.667V309.357H53.376v170.667c0,5.891-4.776,10.667-10.667,10.667H32.043     c-5.891,0-10.667-4.776-10.667-10.667V181.357c0-5.891,4.776-10.667,10.667-10.667h192c5.891,0,10.667,4.776,10.667,10.667     v10.667c0,5.891-4.776,10.667-10.667,10.667H117.376z" data-original="#000000" class="active-path" data-old_color="#00ffff" fill="#00ffff"/>
			<path d="M485.805,0.025c-0.072-0.001-0.144-0.001-0.215-0.002H176.256c-14.668-0.177-26.701,11.57-26.878,26.238     c-0.001,0.072-0.001,0.144-0.002,0.215v90.88h21.333v-90.88c0-2.828,2.292-5.12,5.12-5.12h309.333c2.828,0,5.12,2.292,5.12,5.12     v288c0,2.828-2.292,5.12-5.12,5.12H175.829c-2.828,0-5.12-2.292-5.12-5.12v-58.453h-21.333v58.88     c0.058,14.586,11.868,26.395,26.453,26.453h144.213v70.613l-72,82.347l16,14.08l66.667-76.16l66.667,76.16l16-14.08l-72-82.347     v-70.613h144.213c14.586-0.058,26.395-11.868,26.453-26.453v-288C512.22,12.236,500.472,0.202,485.805,0.025z" data-original="#000000" class="active-path" data-old_color="#00ffff" fill="#00ffff"/>
			<path d="M469.376,53.357c0-5.891-4.776-10.667-10.667-10.667h-42.667v21.333h32v32h21.333V53.357z" data-original="#000000" class="active-path" data-old_color="#00ffff" fill="#00ffff"/>
			<rect x="448.043" y="117.357" width="21.333" height="21.333" data-original="#000000" class="active-path" data-old_color="#00ffff" fill="#00ffff"/>
			<rect x="448.043" y="277.357" width="21.333" height="21.333" data-original="#000000" class="active-path" data-old_color="#00ffff" fill="#00ffff"/>
			<rect x="394.709" y="277.357" width="21.333" height="21.333" data-original="#000000" class="active-path" data-old_color="#00ffff" fill="#00ffff"/>
			<rect x="341.376" y="277.357" width="21.333" height="21.333" data-original="#000000" class="active-path" data-old_color="#00ffff" fill="#00ffff"/>
		</g>
	</g>
</g></g> </svg>
