<?xml version="1.0"?>
<svg xmlns="http://www.w3.org/2000/svg" xmlns:xlink="http://www.w3.org/1999/xlink" version="1.1" id="Layer_1" x="0px" y="0px" viewBox="0 0 506.88 506.88" style="enable-background:new 0 0 506.88 506.88;" xml:space="preserve" width="512px" height="512px"><g><g transform="translate(1 1)">
	<g>
		<g>
			<path d="M112.493,354.84c-9.387,0-17.067,7.68-17.067,17.067s7.68,17.067,17.067,17.067s17.067-7.68,17.067-17.067     S121.88,354.84,112.493,354.84z" data-original="#000000" class="active-path" data-old_color="##48484" fill="#484848"/>
			<path d="M403.48,354.84c-9.387,0-17.067,7.68-17.067,17.067s7.68,17.067,17.067,17.067s17.067-7.68,17.067-17.067     S412.867,354.84,403.48,354.84z" data-original="#000000" class="active-path" data-old_color="##48484" fill="#484848"/>
			<path d="M377.88,295.107h-17.067c-5.12,0-8.533,3.413-8.533,8.533s3.413,8.533,8.533,8.533h17.067     c5.12,0,8.533-3.413,8.533-8.533S383,295.107,377.88,295.107z" data-original="#000000" class="active-path" data-old_color="##48484" fill="#484848"/>
			<path d="M494.787,277.187l-33.28-13.653L440.173,178.2c-2.56-11.947-12.8-19.627-24.747-19.627h-44.827     c11.199-34.432,15.468-64.302,15.814-67.413c0-2.56-0.853-4.267-1.707-6.827c-1.707-1.707-4.267-2.56-6.827-2.56H69.827     c-4.267,0-7.68,2.56-7.68,6.827l-4.915,27.307H26.307c-5.12,0-8.533,3.413-8.533,8.533c0,5.12,3.413,8.533,8.533,8.533h27.853     l-3.072,17.067H20.333c-5.12,0-8.533,3.413-8.533,8.533c0,5.12,3.413,8.533,8.533,8.533h27.682l-3.072,17.067H14.36     c-5.12,0-8.533,3.413-8.533,8.533s3.413,8.533,8.533,8.533h27.511l-3.072,17.067H7.533c-5.12,0-8.533,3.413-8.533,8.533     s3.413,8.533,8.533,8.533h28.194l-4.301,23.893c-0.189,0.568-0.282,1.135-0.313,1.694L10.947,370.2     c-0.853,2.56-0.853,4.267,0.853,6.827c1.707,2.56,4.267,3.413,6.827,3.413h43.397c4.095,24.134,25.217,42.667,50.47,42.667     s46.375-18.533,50.47-42.667H353.01c4.095,24.134,25.217,42.667,50.47,42.667c25.253,0,46.375-18.533,50.47-42.667h34.863     c9.387,0,17.067-7.68,17.067-17.067V293.4C505.88,285.72,501.613,279.747,494.787,277.187z M147.48,218.307H56.268l3.034-17.067     h95.004c4.267,0,8.533-3.413,8.533-8.533s-3.413-8.533-8.533-8.533h-91.97l3.034-17.067h94.91c5.12,0,8.533-3.413,8.533-8.533     c0-5.12-3.413-8.533-8.533-8.533H68.404l3.034-17.067h94.815c5.12,0,8.533-3.413,8.533-8.533c0-5.12-3.413-8.533-8.533-8.533     H74.473l3.034-17.067H367.64c-2.506,14.68-8.621,44.081-19.914,73.267c-13.977,35.662-37.264,74.544-72.697,79.743     c-0.231,0.033-0.463,0.065-0.695,0.096c-0.493,0.066-0.986,0.131-1.483,0.183c-0.782,0.081-1.57,0.146-2.364,0.194     c-0.265,0.017-0.532,0.029-0.799,0.042c-0.908,0.043-1.819,0.075-2.742,0.075H50.2l3.034-17.067h95.099     c4.267,0,7.68-3.413,7.68-8.533S152.6,218.307,147.48,218.307z M112.493,406.04c-18.773,0-34.133-15.36-34.133-34.133     s15.36-34.133,34.133-34.133s34.133,15.36,34.133,34.133S131.267,406.04,112.493,406.04z M403.48,406.04     c-18.773,0-34.133-15.36-34.133-34.133s15.36-34.133,34.133-34.133c18.773,0,34.133,15.36,34.133,34.133     S422.253,406.04,403.48,406.04z M488.813,363.373H453.95c-4.095-24.134-25.217-42.667-50.47-42.667     c-0.135,0-0.268,0.009-0.403,0.01c-0.151-0.001-0.299-0.01-0.45-0.01c-25.6,0-46.08,18.773-50.347,42.667H162.963     c-2.881-16.981-14.193-31.178-29.446-38.107c-0.338-0.154-0.673-0.313-1.015-0.461c-0.215-0.092-0.433-0.176-0.65-0.265     c-0.552-0.229-1.107-0.452-1.669-0.661c-0.153-0.057-0.308-0.109-0.462-0.165c-0.625-0.226-1.254-0.441-1.89-0.643     c-0.138-0.044-0.276-0.085-0.415-0.127c-0.648-0.199-1.302-0.387-1.962-0.56c-0.146-0.038-0.292-0.076-0.439-0.113     c-0.648-0.164-1.301-0.316-1.959-0.455c-0.166-0.035-0.332-0.071-0.498-0.104c-0.635-0.128-1.276-0.242-1.921-0.345     c-0.191-0.031-0.382-0.064-0.574-0.093c-0.621-0.093-1.248-0.17-1.877-0.24c-0.213-0.024-0.425-0.052-0.639-0.074     c-0.629-0.062-1.263-0.107-1.899-0.146c-0.21-0.013-0.417-0.033-0.628-0.043c-0.837-0.041-1.68-0.065-2.529-0.065     c-0.849,0-1.692,0.024-2.529,0.065c-0.21,0.01-0.418,0.03-0.628,0.043c-0.636,0.039-1.27,0.084-1.899,0.146     c-0.214,0.021-0.426,0.05-0.639,0.074c-0.629,0.07-1.256,0.148-1.877,0.24c-0.192,0.029-0.382,0.062-0.574,0.093     c-0.645,0.104-1.285,0.218-1.921,0.345c-0.167,0.034-0.332,0.069-0.498,0.104c-0.658,0.139-1.311,0.291-1.959,0.455     c-0.146,0.037-0.293,0.074-0.439,0.113c-0.66,0.174-1.314,0.361-1.962,0.561c-0.138,0.042-0.276,0.083-0.414,0.127     c-0.637,0.202-1.267,0.418-1.892,0.644c-0.153,0.055-0.308,0.107-0.46,0.164c-0.563,0.21-1.119,0.433-1.672,0.662     c-0.215,0.089-0.433,0.172-0.647,0.264c-0.343,0.148-0.68,0.307-1.019,0.463c-15.25,6.93-26.561,21.126-29.441,38.105H28.867     l17.92-93.867h220.16c1.207,0,2.399-0.035,3.583-0.091c0.081-0.004,0.161-0.006,0.242-0.01     c47.386-2.382,76.592-48.842,93.8-93.765h50.855c4.267,0,7.68,3.413,8.533,6.827l19.44,78.507h-37.36     c-5.973,0-11.093-5.12-11.093-11.093v-40.107c0-5.12-3.413-8.533-8.533-8.533c-5.12,0-8.533,3.413-8.533,8.533v40.107     c0,15.36,12.8,28.16,28.16,28.16h45.227l37.547,14.507V363.373z" data-original="#000000" class="active-path" data-old_color="##48484" fill="#484848"/>
		</g>
	</g>
</g></g> </svg>
