<svg xmlns="http://www.w3.org/2000/svg" xmlns:xlink="http://www.w3.org/1999/xlink" version="1.1" style="" xml:space="preserve" width="65" height="60"><rect id="backgroundrect" width="100%" height="100%" x="0" y="0" fill="none" stroke="none" class="" style=""/><g class="currentLayer" style=""><title>Layer 1</title><path d="M17.891387563943862,18.592334899425506 l0.6860000000000006,-0.013000000000000008 c0.552,-0.010000000000000005 0.992,-0.466 0.981,-1.019 s-0.47400000000000014,-0.981 -1.019,-0.981 l-0.6870000000000006,0.013000000000000008 c-2.83,0.054000000000000034 -5.628,-0.36300000000000016 -8.32,-1.24 l-0.12300000000000004,-0.04000000000000002 c-0.526,-0.171 -1.089,0.11600000000000005 -1.26,0.6410000000000003 c-0.171,0.525 0.11600000000000005,1.09 0.6410000000000003,1.26 l0.12300000000000004,0.04000000000000002 c2.738,0.8920000000000003 5.579,1.343 8.451,1.343 C17.540387563943863,18.59733489942551 17.715387563943864,18.596334899425507 17.891387563943862,18.592334899425506 z" class="" id="svg_11" fill="#eb1aeb" fill-opacity="1"/><path d="M21.42792342686653,22.14941626024246 c-2.371,0.20700000000000005 -4.768,0.18200000000000005 -7.126,-0.07400000000000002 c-0.546,-0.055000000000000014 -1.042,0.3370000000000002 -1.102,0.8860000000000002 s0.3370000000000002,1.042 0.8860000000000002,1.102 c1.377,0.14900000000000005 2.766,0.22500000000000006 4.156,0.22500000000000006 c1.122,0 2.244,-0.049000000000000016 3.359,-0.14600000000000005 c0.55,-0.048000000000000015 0.9580000000000002,-0.533 0.909,-1.083 C22.463923426866533,22.509416260242464 21.975923426866533,22.09441626024246 21.42792342686653,22.14941626024246 z" id="svg_2" class="" fill="#eb1aeb" fill-opacity="1"/><path d="M24.891520100593567,16.284571149349212 l-0.516,0.062000000000000034 c-0.548,0.06600000000000004 -0.9390000000000003,0.5630000000000003 -0.8740000000000003,1.112 c0.06100000000000003,0.508 0.49200000000000016,0.8810000000000003 0.991,0.8810000000000003 c0.04000000000000002,0 0.08000000000000004,-0.0020000000000000013 0.12100000000000002,-0.007000000000000006 l0.516,-0.062000000000000034 c0.548,-0.06600000000000004 0.9390000000000003,-0.5630000000000003 0.8740000000000003,-1.112 S25.440520100593567,16.223571149349212 24.891520100593567,16.284571149349212 z" id="svg_3" class="" fill="#eb1aeb" fill-opacity="1"/><path d="M26.27940172934532,21.19768183708191 l-0.5670000000000003,0.137 c-0.537,0.13 -0.8670000000000003,0.6700000000000006 -0.7370000000000003,1.208 c0.11100000000000004,0.458 0.521,0.7650000000000003 0.971,0.7650000000000003 c0.07800000000000004,0 0.15700000000000008,-0.009000000000000008 0.23600000000000004,-0.02800000000000001 l0.5670000000000003,-0.137 c0.537,-0.13 0.8670000000000003,-0.6700000000000006 0.7370000000000003,-1.208 C27.356401729345322,21.397681837081908 26.81240172934532,21.06768183708191 26.27940172934532,21.19768183708191 z" id="svg_4" class="" fill="#eb1aeb" fill-opacity="1"/><path d="M30.263106271147727,25.96698424166441 c-0.21500000000000022,-0.509 -0.803,-0.7450000000000009 -1.311,-0.532 l-0.6080000000000009,0.257 c-0.509,0.21500000000000022 -0.7470000000000009,0.802 -0.532,1.311 c0.16200000000000028,0.3820000000000005 0.532,0.6110000000000009 0.922,0.6110000000000009 c0.13,0 0.262,-0.026000000000000054 0.3890000000000005,-0.07900000000000011 l0.6080000000000009,-0.257 C30.23910627114773,27.06298424166441 30.478106271147727,26.47598424166441 30.263106271147727,25.96698424166441 z" id="svg_5" class="selected" fill="#eb1aeb" fill-opacity="1"/><path d="M62.873315808296205,16.966263233184815 c0.06600000000000002,-3.3850000000000002 -1.718,-5.643 -4.896,-6.194 c-3.737,-0.6540000000000001 -8.992,1.137 -11.708,3.983 c-1.709,1.791 -2.5380000000000003,4.068 -2.164,5.944 c0.06600000000000002,0.32900000000000007 0.16700000000000004,0.6400000000000001 0.30200000000000005,0.93 c-0.78,0.8840000000000001 -1.677,1.417 -3.268,2.356 c-1.025,0.6050000000000001 -2.317,1.371 -3.971,2.471 c-0.42900000000000005,-1.403 -0.28400000000000003,-3.579 -0.135,-5.704 c0.3490000000000001,-4.99 0.8250000000000001,-11.824 -6.71,-12.428 c-7.914,-0.6360000000000001 -12.838000000000001,-3.252 -15.069,-4.755 c-1.188,-0.801 -2.105,-0.6130000000000001 -2.6670000000000003,-0.31400000000000006 C10.872315808296204,4.1692632331848145 10.744315808296204,7.045263233184814 10.746315808296204,7.905263233184815 c0.0010000000000000002,0.44000000000000006 0.05500000000000001,0.8750000000000001 0.14,1.307 c-1.584,-0.405 -3.077,-0.91 -4.45,-1.544 c-1.4220000000000002,-0.6560000000000001 -2.376,-0.30800000000000005 -2.928,0.1 c-1.604,1.187 -1.361,3.959 -1.249,4.78 c0.29700000000000004,2.162 1.657,3.637 2.406,4.3 c-0.06400000000000002,0.8770000000000001 -0.012000000000000002,2.534 0.9550000000000001,4.25 c1.146,2.035 3.556,2.907 4.818,3.235 c0.14600000000000002,1.121 0.7210000000000001,3.038 2.87,4.157 c1.999,1.042 4.604,0.8980000000000001 5.846,0.7490000000000001 c0.5880000000000001,0.919 1.87,2.604 3.874,3.606 c1.3290000000000002,0.6640000000000001 2.911,1.065 4.201,1.302 c-2.125,1.921 -3.669,3.753 -4.605,6.119 c-1.016,2.572 -0.985,5.748 0.08200000000000002,8.495 c1.5030000000000001,3.866 4.731,6.21 8.856,6.433 c0.24900000000000003,0.013000000000000003 0.49500000000000005,0.020000000000000004 0.7380000000000001,0.020000000000000004 c2.206,0 4.176,-0.558 5.812,-1.625 c5.973,-1.141 8.087,-6.527 8.048,-9.884 c-0.024000000000000004,-2.037 -0.51,-4.004 -1.373,-5.657 c1.8770000000000002,-1.087 4.14,-2.577 6.281,-4.454 c3.77,-3.307 5.491,-6.213 6.344,-7.883 C60.35431580829621,25.280263233184815 62.8013158082962,20.592263233184813 62.873315808296205,16.966263233184815 zM12.746315808296204,7.901263233184814 c-0.003000000000000001,-1.6800000000000002 0.465,-2.713 0.782,-2.882 c0.125,-0.06500000000000002 0.3950000000000001,0.06300000000000001 0.6080000000000001,0.20700000000000002 c2.3930000000000002,1.613 7.658,4.418 16.026,5.09 c5.188,0.41700000000000004 5.303,4.167 4.875,10.295 c-0.18700000000000003,2.6660000000000004 -0.35500000000000004,5.193 0.42800000000000005,7.007 c-0.07300000000000001,0.05100000000000001 -0.15000000000000002,0.10700000000000001 -0.22500000000000003,0.16000000000000003 c-0.9690000000000001,-1.193 -1.431,-3.496 -1.916,-5.936 c-1.068,-5.373 -2.407,-12.057 -10.305,-11.625 c-3.617,0.19800000000000004 -6.925,0.013000000000000003 -9.921,-0.526 C12.870315808296203,9.106263233184814 12.747315808296204,8.506263233184814 12.746315808296204,7.901263233184814 zM20.570315808296204,27.701263233184815 c-0.17200000000000001,-0.3430000000000001 -0.521,-0.553 -0.8940000000000001,-0.553 c-0.06400000000000002,0 -0.129,0.006000000000000002 -0.19400000000000003,0.019000000000000003 c-0.8850000000000001,0.17400000000000002 -3.549,0.43400000000000005 -5.249,-0.452 c-1.928,-1.004 -1.8450000000000002,-3.053 -1.8410000000000002,-3.132 c0.035,-0.52 -0.3340000000000001,-0.979 -0.8490000000000001,-1.056 c-0.031000000000000007,-0.005000000000000001 -3.11,-0.516 -4.179,-2.4130000000000003 c-0.997,-1.771 -0.6620000000000001,-3.471 -0.6600000000000001,-3.481 c0.08800000000000002,-0.3980000000000001 -0.07500000000000001,-0.81 -0.41200000000000003,-1.041 c-0.018000000000000002,-0.012000000000000002 -1.7680000000000002,-1.263 -2.05,-3.318 c-0.2,-1.457 0.07500000000000001,-2.619 0.457,-2.901 c0.21100000000000002,-0.15600000000000003 0.6060000000000001,-0.027000000000000007 0.9,0.10800000000000001 c4.745,2.19 10.643,3.108 17.533,2.731 c5.771,-0.31900000000000006 6.991,3.762 8.233,10.018 c0.553,2.785 1.076,5.415 2.464,6.98 c0.028000000000000004,0.03200000000000001 0.05900000000000001,0.06300000000000001 0.09200000000000003,0.09100000000000003 c0.15500000000000003,0.136 0.38100000000000006,0.41400000000000003 0.40800000000000003,0.466 c-0.038000000000000006,0.53 -0.775,1.166 -1.327,1.597 c-1.318,1.03 -3.299,1.099 -3.275,1.103 c-0.08900000000000002,-0.006000000000000002 -3.494,-0.259 -5.803,-1.413 C21.734315808296202,29.959263233184814 20.580315808296202,27.721263233184814 20.570315808296204,27.701263233184815 zM44.1613158082962,43.727263233184814 c0.020000000000000004,1.722 -0.7460000000000001,4.256 -2.66,6.023 c0.8160000000000001,-1.6320000000000001 1.131,-3.317 1.116,-4.63 c-0.024000000000000004,-2.04 -0.512,-3.847 -1.209,-5.306 c0.41600000000000004,-0.19300000000000003 0.97,-0.462 1.629,-0.805 C43.5633158082962,40.025263233184816 44.1373158082962,41.61026323318482 44.1613158082962,43.727263233184814 zM49.7503158082962,32.08826323318481 c-3.689,3.237 -7.886,5.314 -9.372,5.997 c-0.3940000000000001,-0.524 -0.812,-0.9580000000000001 -1.227,-1.283 c-0.43400000000000005,-0.3420000000000001 -1.063,-0.264 -1.403,0.171 s-0.265,1.063 0.171,1.403 c1.2730000000000001,0.998 2.661,3.541 2.6990000000000003,6.767 c0.019000000000000003,1.6 -0.6320000000000001,4.111 -2.528,5.93 c-1.618,1.552 -3.773,2.271 -6.418,2.122 c-4.526,-0.24300000000000002 -6.391,-3.337 -7.1,-5.159 c-0.8760000000000001,-2.255 -0.91,-4.9510000000000005 -0.08600000000000002,-7.035 c0.8570000000000001,-2.167 2.339,-3.95 5.436,-6.547 c0.6960000000000002,-0.04800000000000001 2.7510000000000003,-0.29200000000000004 4.312,-1.513 c0.98,-0.7680000000000001 1.996,-1.7280000000000002 2.089,-3.027 c0.011000000000000003,-0.14700000000000002 -0.004000000000000001,-0.28900000000000003 -0.028000000000000004,-0.42900000000000005 c2.617,-1.8570000000000002 4.483,-2.964 5.863,-3.778 c1.542,-0.911 2.604,-1.561 3.545,-2.5540000000000003 c0.22700000000000004,0.16000000000000003 0.465,0.31000000000000005 0.7320000000000001,0.42700000000000005 c3.467,1.5230000000000001 6.6930000000000005,1.7360000000000002 9.2,1.213 C54.845315808296206,26.336263233184816 53.251315808296205,29.017263233184813 49.7503158082962,32.08826323318481 zM57.855315808296204,21.745263233184815 c-1.931,1.474 -5.964,2.048 -10.615,0.004000000000000001 c-0.6430000000000001,-0.28300000000000003 -1.037,-0.7680000000000001 -1.172,-1.4420000000000002 c-0.24500000000000002,-1.227 0.402,-2.864 1.649,-4.171 c1.965,-2.06 5.633,-3.5 8.598,-3.5 c0.46,0 0.903,0.035 1.3210000000000002,0.10700000000000001 c2.195,0.38100000000000006 3.284,1.7890000000000001 3.237,4.185 c-0.035,1.806 -0.7350000000000001,3.678 -1.618,5.003 C58.919315808296204,21.494263233184814 58.2953158082962,21.411263233184815 57.855315808296204,21.745263233184815 z" id="svg_6" class="" fill="#eb1aeb" fill-opacity="1"/><path d="M50.90854549789429,27.30942095851898 c-2.162,2.3970000000000002 -4.594,4.324 -7.228,5.725 c-0.4870000000000002,0.26 -0.6730000000000007,0.8650000000000004 -0.4130000000000002,1.353 c0.1800000000000001,0.33800000000000036 0.525,0.53 0.8840000000000005,0.53 c0.1580000000000001,0 0.3190000000000003,-0.03700000000000001 0.4690000000000002,-0.11700000000000008 c2.84,-1.5110000000000001 5.455,-3.58 7.772,-6.15 c0.3700000000000002,-0.4110000000000002 0.33800000000000036,-1.042 -0.07200000000000002,-1.413 C51.91054549789429,26.86742095851898 51.278545497894285,26.89942095851898 50.90854549789429,27.30942095851898 z" class="" fill="#eb1aeb" fill-opacity="1" id="svg_10"/></g></svg>