<svg xmlns="http://www.w3.org/2000/svg" xmlns:xlink="http://www.w3.org/1999/xlink" height="49" width="45" fill="#000000" version="1.1" enable-background="new 0 0 100 100" xml:space="preserve" style=""><rect id="backgroundrect" width="100%" height="100%" x="0" y="0" fill="none" stroke="none" class="" style=""/><g class="currentLayer" style=""><title>Layer 1</title><path d="M41.30887343215943,18.981174209594727 c0,-4.79 -2.42,-10.165 -6.317,-14.028 c-0.5880000000000006,-0.5830000000000006 -1.538,-0.5780000000000006 -2.121,0.009000000000000091 c-0.5830000000000006,0.5890000000000006 -0.5800000000000006,1.538 0.009000000000000091,2.122 c3.35,3.319 5.43,7.88 5.43,11.897 c0,4.083 -2.188,6.943 -6.502,8.526 V16.93417420959473 c0,-0.8280000000000006 -0.6720000000000048,-1.5 -1.5,-1.5 c-0.8300000000000006,0 -1.5,0.6720000000000048 -1.5,1.5 v15.055 c-1.525,-0.77 -3.5220000000000002,-1.233 -5.791,-1.233 c-2.27,0 -4.266,0.466 -5.791,1.233 V16.93417420959473 c0,-0.8280000000000006 -0.6720000000000048,-1.5 -1.5,-1.5 c-0.8300000000000006,0 -1.5,0.6720000000000048 -1.5,1.5 v10.563 c-4.309,-1.5830000000000002 -6.502,-4.437 -6.502,-8.517 c0,-4.019 2.08,-8.578 5.429,-11.897 c0.5880000000000006,-0.5840000000000006 0.5920000000000006,-1.533 0.009000000000000091,-2.122 c-0.5830000000000006,-0.5870000000000006 -1.533,-0.5920000000000006 -2.121,-0.009000000000000091 c-3.896,3.863 -6.316,9.238 -6.316,14.028 c0,5.673 3.363,9.787 9.502,11.688 v5.229 c0,4.849 3.943,8.791 8.791,8.791 c4.847,0 8.791,-3.942 8.791,-8.791 v-5.229 C37.944873432159426,28.768174209594726 41.30887343215943,24.653174209594724 41.30887343215943,18.981174209594727 zM23.015873432159424,41.692174209594725 c-3.193,0 -5.791,-2.599 -5.791,-5.791 c0,-0.7580000000000039 2.198,-2.146 5.791,-2.146 c3.592,0 5.791,1.389 5.791,2.146 C28.80687343215942,39.09317420959472 26.207873432159424,41.692174209594725 23.015873432159424,41.692174209594725 z" id="svg_1" class="" opacity="0.13"/></g></svg>